# xmcd
#
# Track frame offsets:
#	150
#	16531
#	33309
#	50102
#	65508
#	79227
#	93291
#	108108
#	123931
#	139591
#	153853
#	172276
#	189216
#	206370
#	224334
#	241000
#	257386
#	273097
#	291157
#	311466
#
# Disc length: 4337 seconds
#
# Revision: 1
# Processed by: cddbd v1.5.2PL0 Copyright (c) Steve Scherf et al.
# Submitted via: audiograbber 1.83.01
#
DISCID=0510ef14
DTITLE=Various Artist - Bravo Hits 38 CD 2
DYEAR=1900
DGENRE=
TTITLE0=Novaspace - 01 - To france
TTITLE1=Pierre - 02 - Sunshine
TTITLE2=Loona - 03 - Rythm of the night
TTITLE3=Holly Valance - 04 - Kiss Kiss
TTITLE4=B3 - 05 - I.O.I.O.
TTITLE5=Britney Spears - 06 - I love Rock'N'Roll
TTITLE6=Atomic Kitten - 07 - It's OK !
TTITLE7=Jeanette - 08 - Sunny day
TTITLE8=Captain Jack - 09 - Give it up
TTITLE9=Prezioso feat. Marvin - 10 - Somebody
TTITLE10=Ben - 11 - Herz aus Glas
TTITLE11=Marlon - 12 - Ich hab Dich zuerst gesehen
TTITLE12=J.C.A. - 13 - I begin to wonder
TTITLE13=Moguai - 14 - U know Y
TTITLE14=Nightwatchers - 15 - Insomnia
TTITLE15=Brooklyn Bounce - 16 - Loud and Proud
TTITLE16=One and One - 17 - New York groove
TTITLE17=Sasha - 18 - This is my time
TTITLE18=The calling - 19 - Wherever You will go
TTITLE19=Die toten Hosen - 20 - Nur zu Besuch
EXTD=
EXTT0=
EXTT1=
EXTT2=
EXTT3=
EXTT4=
EXTT5=
EXTT6=
EXTT7=
EXTT8=
EXTT9=
EXTT10=
EXTT11=
EXTT12=
EXTT13=
EXTT14=
EXTT15=
EXTT16=
EXTT17=
EXTT18=
EXTT19=
PLAYORDER=
